<?xml version="1.0" encoding="UTF-8" standalone="no"?>
<!-- Created with Inkscape (http://www.inkscape.org/) -->

<svg
   width="841mm"
   height="594mm"
   viewBox="0 0 841 594"
   version="1.1"
   id="svg5"
   inkscape:version="1.2.2 (b0a8486541, 2022-12-01)"
   sodipodi:docname="copper_circuiti_older.svg"
   xmlns:inkscape="http://www.inkscape.org/namespaces/inkscape"
   xmlns:sodipodi="http://sodipodi.sourceforge.net/DTD/sodipodi-0.dtd"
   xmlns="http://www.w3.org/2000/svg"
   xmlns:svg="http://www.w3.org/2000/svg">
  <sodipodi:namedview
     id="namedview7"
     pagecolor="#ffffff"
     bordercolor="#666666"
     borderopacity="1.0"
     inkscape:showpageshadow="2"
     inkscape:pageopacity="0.0"
     inkscape:pagecheckerboard="0"
     inkscape:deskcolor="#d1d1d1"
     inkscape:document-units="mm"
     showgrid="false"
     inkscape:zoom="0.84096521"
     inkscape:cx="1355.5852"
     inkscape:cy="1045.8221"
     inkscape:window-width="3840"
     inkscape:window-height="2102"
     inkscape:window-x="1920"
     inkscape:window-y="0"
     inkscape:window-maximized="1"
     inkscape:current-layer="layer1" />
  <defs
     id="defs2" />
  <g
     inkscape:label="Livello 1"
     inkscape:groupmode="layer"
     id="layer1">
    <path
       id="rect234"
       style="opacity:0.702565;fill:none;stroke:#000000;stroke-width:0.685001;paint-order:fill markers stroke;stop-color:#000000"
       d="M 156.51654 258.30206 C 156.18414 258.30206 155.91606 258.56963 155.91606 258.90203 L 155.91606 293.66425 A 29.463953 12.146804 0 0 0 126.96641 305.80511 A 29.463953 12.146804 0 0 0 155.91606 317.94648 L 155.91606 352.70199 C 155.91606 353.03439 156.18414 353.30195 156.51654 353.30195 L 745.31626 353.30195 C 745.64866 353.30195 745.91623 353.03439 745.91623 352.70199 L 745.91623 258.90203 C 745.91623 258.56963 745.64866 258.30206 745.31626 258.30206 L 156.51654 258.30206 z M 166.51645 268.30197 L 260.24406 268.30197 L 260.24406 288.46766 A 18 18 0 0 0 247.04952 305.80201 A 18 18 0 0 0 260.24406 323.13635 L 260.24406 343.30204 L 166.51645 343.30204 C 166.18405 343.30204 165.91649 343.03448 165.91649 342.70208 L 165.91649 268.90193 C 165.91649 268.56953 166.18405 268.30197 166.51645 268.30197 z M 269.85485 268.30197 L 389.45426 268.30197 L 389.45426 288.46766 A 18 18 0 0 0 376.25972 305.80201 A 18 18 0 0 0 389.45426 323.13635 L 389.45426 343.30204 L 269.85485 343.30204 L 269.85485 323.13635 A 18 18 0 0 0 283.04939 305.80201 A 18 18 0 0 0 269.85485 288.45733 L 269.85485 268.30197 z M 399.06505 268.30197 L 518.66395 268.30197 L 518.66395 288.46766 A 18 18 0 0 0 505.46941 305.80201 A 18 18 0 0 0 518.66395 323.13635 L 518.66395 343.30204 L 399.06505 343.30204 L 399.06505 323.13635 A 18 18 0 0 0 412.25959 305.80201 A 18 18 0 0 0 399.06505 288.45733 L 399.06505 268.30197 z M 528.27473 268.30197 L 647.87415 268.30197 L 647.87415 288.46766 A 18 18 0 0 0 634.67961 305.80201 A 18 18 0 0 0 647.87415 323.13635 L 647.87415 343.30204 L 528.27473 343.30204 L 528.27473 323.13635 A 18 18 0 0 0 541.46927 305.80201 A 18 18 0 0 0 528.27473 288.45733 L 528.27473 268.30197 z M 657.48493 268.30197 L 735.31636 268.30197 C 735.64876 268.30197 735.91632 268.56953 735.91632 268.90193 L 735.91632 342.70208 C 735.91632 343.03448 735.64876 343.30204 735.31636 343.30204 L 657.48493 343.30204 L 657.48493 323.13635 A 18 18 0 0 0 670.67948 305.80201 A 18 18 0 0 0 657.48493 288.45733 L 657.48493 268.30197 z M 265.04945 295.80158 A 10 10 0 0 1 275.04936 305.80201 A 10 10 0 0 1 265.04945 315.80191 A 10 10 0 0 1 255.04955 305.80201 A 10 10 0 0 1 265.04945 295.80158 z M 394.25966 295.8021 A 10 10 0 0 1 404.25956 305.80252 A 10 10 0 0 1 394.25966 315.80243 A 10 10 0 0 1 384.25975 305.80252 A 10 10 0 0 1 394.25966 295.8021 z M 523.46934 295.8021 A 10 10 0 0 1 533.46925 305.80252 A 10 10 0 0 1 523.46934 315.80243 A 10 10 0 0 1 513.46943 305.80252 A 10 10 0 0 1 523.46934 295.8021 z M 652.67954 295.8021 A 10 10 0 0 1 662.67945 305.80252 A 10 10 0 0 1 652.67954 315.80243 A 10 10 0 0 1 642.67963 305.80252 A 10 10 0 0 1 652.67954 295.8021 z M 155.91606 298.45982 L 155.91606 313.15091 A 20.396862 7.3510838 0 0 1 136.03356 305.80511 A 20.396862 7.3510838 0 0 1 155.91606 298.45982 z " />
    <path
       id="rect573"
       style="opacity:0.702565;fill:#000000;fill-opacity:1;stroke:#000000;stroke-width:0.405384;paint-order:fill markers stroke;stop-color:#000000"
       d="M 197.24429 346.09722 C 196.73323 346.09722 196.32187 346.15793 196.32187 346.23365 L 196.32187 347.0553 C 196.32187 347.06467 196.37653 347.07025 196.38853 347.07907 L 196.38853 353.24045 C 196.38853 353.31496 196.59989 353.37481 196.8624 353.37481 C 197.12491 353.37481 197.33628 353.31496 197.33628 353.24045 L 197.33628 347.19173 L 744.9938 347.19173 C 745.50486 347.19173 745.91623 347.13102 745.91623 347.0553 L 745.91623 346.23365 C 745.91623 346.15793 745.50486 346.09722 744.9938 346.09722 L 197.24429 346.09722 z " />
    <path
       id="rect573-5"
       style="opacity:0.702565;fill:#000000;fill-opacity:1;stroke:#000000;stroke-width:0.405384;paint-order:fill markers stroke;stop-color:#000000"
       d="M 196.8624 258.2292 C 196.59989 258.2292 196.38853 258.28906 196.38853 258.36356 L 196.38853 264.52494 C 196.37653 264.53377 196.32187 264.53934 196.32187 264.54871 L 196.32187 265.37037 C 196.32187 265.44608 196.73323 265.50679 197.24429 265.50679 L 744.9938 265.50679 C 745.50486 265.50679 745.91623 265.44608 745.91623 265.37037 L 745.91623 264.54871 C 745.91623 264.47299 745.50486 264.41228 744.9938 264.41228 L 197.33628 264.41228 L 197.33628 258.36356 C 197.33628 258.28906 197.12491 258.2292 196.8624 258.2292 z " />
  </g>
</svg>
